<svg width="193" height="54" viewBox="0 0 193 54" fill="none" xmlns="http://www.w3.org/2000/svg">
<path d="M177.631 0.000175499H15.378C14.7866 0.000175499 14.2022 0.0001755 13.6124 0.00287549C13.1186 0.00557548 12.6287 0.013419 12.1302 0.0200204C11.0472 0.0306878 9.96677 0.110438 8.89825 0.258578C7.83122 0.409943 6.79763 0.695309 5.83241 1.10503C4.86838 1.51821 3.98752 2.05509 3.22178 2.69621C2.45202 3.33552 1.81036 4.07448 1.32149 4.88468C0.831262 5.69325 0.491339 6.55972 0.313457 7.45415C0.133884 8.34745 0.0372542 9.25105 0.0244347 10.1568C0.00946742 10.5707 0.00788683 10.986 0 11.4V42.6041C0.00788683 43.0233 0.00946742 43.4294 0.0244347 43.8487C0.0372581 44.7545 0.133888 45.658 0.313457 46.5513C0.490848 47.4462 0.830791 48.3132 1.32149 49.1221C1.81014 49.9296 2.45189 50.6656 3.22178 51.3014C3.98461 51.9453 4.86605 52.4826 5.83241 52.8926C6.79762 53.3034 7.83111 53.5905 8.89825 53.7442C9.96695 53.8911 11.0473 53.9709 12.1302 53.9829C12.6287 53.992 13.1186 53.9973 13.6124 53.9973C14.2022 54 14.7866 54 15.378 54H177.631C178.21 54 178.799 54 179.379 53.9973C179.87 53.9973 180.374 53.992 180.866 53.9829C181.947 53.9715 183.025 53.8918 184.092 53.7442C185.162 53.5894 186.199 53.3024 187.169 52.8926C188.135 52.4823 189.015 51.9451 189.778 51.3014C190.545 50.6631 191.189 49.9277 191.683 49.1221C192.17 48.3126 192.507 47.4457 192.682 46.5513C192.862 45.6579 192.962 44.7545 192.981 43.8487C192.987 43.4294 192.987 43.0233 192.987 42.6041C193 42.1137 193 41.6259 193 41.1275V12.8739C193 12.3795 193 11.8891 192.987 11.4C192.987 10.986 192.987 10.5707 192.981 10.1568C192.962 9.25092 192.862 8.34752 192.682 7.4541C192.507 6.56018 192.17 5.69379 191.683 4.88462C190.688 3.26068 189.109 1.9388 187.169 1.1049C186.199 0.696189 185.162 0.410899 184.092 0.258457C183.025 0.109664 181.947 0.0298859 180.866 0.0198314C180.374 0.0132435 179.87 0.00533248 179.379 0.00269999C178.799 0 178.21 0 177.631 0V0.000175499Z" fill="#A6A6A6"/>
<path d="M13.6204 52.8185C13.129 52.8185 12.6495 52.8132 12.1619 52.804C11.1519 52.793 10.1443 52.7194 9.14728 52.5839C8.21762 52.4498 7.31703 52.2005 6.47521 51.8442C5.64111 51.4908 4.88035 51.0274 4.22206 50.4718C3.55424 49.9227 2.99826 49.2859 2.57613 48.5865C2.14935 47.8826 1.854 47.1281 1.70035 46.3493C1.53443 45.5125 1.44466 44.6663 1.43182 43.8181C1.42159 43.5334 1.4082 42.5854 1.4082 42.5854V11.3997C1.4082 11.3997 1.42246 10.4663 1.4319 10.1921C1.4442 9.34523 1.53344 8.50036 1.69887 7.66482C1.8528 6.88387 2.14838 6.1272 2.57539 5.42099C2.99596 4.72211 3.54886 4.0848 4.21266 3.53376C4.8757 2.97749 5.6389 2.51171 6.47442 2.15343C7.3143 1.79823 8.21319 1.55069 9.14097 1.41912C10.1413 1.28218 11.1524 1.20815 12.1659 1.19764L13.6212 1.18115H179.371L180.844 1.1983C181.848 1.20829 182.85 1.28166 183.841 1.41779C184.778 1.55102 185.687 1.80028 186.536 2.15739C188.21 2.87943 189.572 4.02176 190.431 5.42428C190.851 6.12562 191.142 6.87612 191.294 7.65032C191.462 8.49272 191.556 9.34422 191.575 10.198C191.579 10.5804 191.579 10.991 191.579 11.3997C191.592 11.906 191.592 12.3878 191.592 12.8736V41.1273C191.592 41.6177 191.592 42.0963 191.579 42.5788C191.579 43.0178 191.579 43.42 191.573 43.8339C191.554 44.6724 191.462 45.5088 191.298 46.3361C191.147 47.1205 190.853 47.8809 190.427 48.5906C190.001 49.2823 189.449 49.9137 188.789 50.4613C188.13 51.0199 187.368 51.486 186.532 51.8416C185.684 52.2007 184.777 52.4509 183.841 52.5839C182.844 52.7201 181.837 52.7938 180.827 52.804C180.354 52.8132 179.86 52.8185 179.379 52.8185L177.631 52.8212L13.6204 52.8185Z" fill="black"/>
<path d="M49.4036 26.14C49.4181 25.0132 49.7163 23.9084 50.2706 22.9284C50.8248 21.9483 51.6171 21.1249 52.5737 20.5347C51.966 19.6638 51.1643 18.947 50.2323 18.4413C49.3003 17.9357 48.2637 17.6551 47.2047 17.6219C44.9458 17.3839 42.7558 18.9784 41.6047 18.9784C40.4313 18.9784 38.659 17.6455 36.7505 17.6849C35.516 17.7249 34.313 18.0852 33.2585 18.7306C32.204 19.3759 31.3341 20.2844 30.7335 21.3675C28.1318 25.8879 30.0724 32.5313 32.5646 36.1852C33.8115 37.9744 35.2687 39.973 37.1755 39.9021C39.0414 39.8244 39.7383 38.7081 41.9905 38.7081C44.2219 38.7081 44.8757 39.9021 46.8212 39.8571C48.8234 39.8244 50.0849 38.0599 51.288 36.2537C52.1839 34.9788 52.8733 33.5698 53.3306 32.0788C52.1674 31.5851 51.1747 30.7587 50.4764 29.7026C49.7781 28.6465 49.405 27.4075 49.4036 26.14Z" fill="white"/>
<path d="M45.7286 15.2196C46.8203 13.9045 47.3581 12.214 47.2279 10.5073C45.5601 10.6831 44.0195 11.4831 42.913 12.7478C42.3721 13.3656 41.9577 14.0844 41.6937 14.8631C41.4298 15.6417 41.3213 16.4649 41.3745 17.2857C42.2087 17.2943 43.034 17.1128 43.7882 16.7549C44.5424 16.3971 45.2059 15.8721 45.7286 15.2196Z" fill="white"/>
<path d="M72.99 35.3727H66.6226L65.0935 39.9039H62.3965L68.4276 23.1396H71.2297L77.2608 39.9039H74.5178L72.99 35.3727ZM67.2821 33.2818H72.3293L69.8412 25.928H69.7716L67.2821 33.2818Z" fill="white"/>
<path d="M90.285 33.7933C90.285 37.5915 88.2593 40.0318 85.2023 40.0318C84.4279 40.0724 83.6578 39.8934 82.9801 39.5152C82.3024 39.137 81.7445 38.575 81.3703 37.8934H81.3124V43.9473H78.8125V27.6814H81.2324V29.7143H81.2783C81.6697 29.036 82.237 28.4768 82.9199 28.0963C83.6028 27.7158 84.3757 27.5283 85.1563 27.5535C88.2474 27.5535 90.285 30.0057 90.285 33.7933ZM87.7154 33.7933C87.7154 31.3188 86.4411 29.6919 84.4969 29.6919C82.5868 29.6919 81.302 31.353 81.302 33.7933C81.302 36.256 82.5868 37.9053 84.4969 37.9053C86.4411 37.9053 87.7154 36.2903 87.7154 33.7933Z" fill="white"/>
<path d="M103.691 33.7933C103.691 37.5915 101.666 40.0317 98.6086 40.0317C97.8342 40.0724 97.064 39.8934 96.3863 39.5152C95.7086 39.137 95.1507 38.5749 94.7765 37.8934H94.7187V43.9472H92.2188V27.6814H94.6385V29.7143H94.6845C95.0759 29.036 95.6432 28.4768 96.3261 28.0963C97.009 27.7158 97.7819 27.5283 98.5625 27.5535C101.654 27.5535 103.691 30.0057 103.691 33.7933ZM101.122 33.7933C101.122 31.3188 99.8473 29.6919 97.9031 29.6919C95.993 29.6919 94.7082 31.353 94.7082 33.7933C94.7082 36.256 95.993 37.9052 97.9031 37.9052C99.8474 37.9052 101.122 36.2903 101.122 33.7933H101.122Z" fill="white"/>
<path d="M112.551 35.2332C112.737 36.8956 114.346 37.9872 116.545 37.9872C118.652 37.9872 120.168 36.8956 120.168 35.3966C120.168 34.0954 119.254 33.3163 117.089 32.7823L114.924 32.2589C111.856 31.5154 110.432 30.0757 110.432 27.7396C110.432 24.8471 112.944 22.8604 116.511 22.8604C120.041 22.8604 122.46 24.8471 122.542 27.7396H120.018C119.867 26.0666 118.489 25.0567 116.475 25.0567C114.461 25.0567 113.083 26.0785 113.083 27.5656C113.083 28.7508 113.963 29.4482 116.117 29.9821L117.957 30.4356C121.384 31.249 122.809 32.6307 122.809 35.0828C122.809 38.2191 120.319 40.1835 116.36 40.1835C112.655 40.1835 110.154 38.2653 109.992 35.2331L112.551 35.2332Z" fill="white"/>
<path d="M128.203 24.79V27.6825H130.519V29.6693H128.203V36.4074C128.203 37.4542 128.666 37.942 129.684 37.942C129.959 37.9371 130.234 37.9178 130.507 37.8839V39.8588C130.049 39.9446 129.584 39.9835 129.118 39.9748C126.652 39.9748 125.691 39.0454 125.691 36.675V29.6693H123.92V27.6825H125.691V24.79H128.203Z" fill="white"/>
<path d="M131.859 33.7944C131.859 29.9488 134.116 27.5322 137.636 27.5322C141.167 27.5322 143.413 29.9487 143.413 33.7944C143.413 37.6506 141.179 40.0566 137.636 40.0566C134.094 40.0566 131.859 37.6506 131.859 33.7944ZM140.866 33.7944C140.866 31.1564 139.661 29.5994 137.636 29.5994C135.61 29.5994 134.407 31.1683 134.407 33.7944C134.407 36.443 135.61 37.9881 137.636 37.9881C139.661 37.9881 140.866 36.443 140.866 33.7944H140.866Z" fill="white"/>
<path d="M145.477 27.6813H147.861V29.7616H147.919C148.08 29.1119 148.459 28.5377 148.993 28.1356C149.526 27.7334 150.182 27.5278 150.848 27.5534C151.136 27.5524 151.424 27.5838 151.705 27.647V29.9937C151.341 29.8821 150.962 29.8309 150.582 29.8421C150.218 29.8273 149.856 29.8915 149.52 30.0304C149.184 30.1693 148.882 30.3796 148.634 30.6467C148.387 30.9139 148.2 31.2316 148.086 31.5781C147.973 31.9246 147.935 32.2917 147.977 32.6541V39.9038H145.477L145.477 27.6813Z" fill="white"/>
<path d="M163.229 36.3151C162.892 38.5339 160.739 40.0566 157.984 40.0566C154.441 40.0566 152.242 37.6743 152.242 33.8524C152.242 30.0186 154.453 27.5322 157.879 27.5322C161.249 27.5322 163.368 29.8552 163.368 33.5611V34.4206H154.766V34.5722C154.726 35.0221 154.782 35.4752 154.93 35.9016C155.079 36.328 155.316 36.7178 155.625 37.0453C155.935 37.3727 156.311 37.6302 156.728 37.8007C157.144 37.9713 157.592 38.0508 158.042 38.0342C158.633 38.0898 159.226 37.9525 159.732 37.6427C160.239 37.333 160.633 36.8674 160.855 36.3151L163.229 36.3151ZM154.778 32.6672H160.867C160.889 32.2628 160.828 31.858 160.687 31.4784C160.546 31.0988 160.329 30.7524 160.048 30.4612C159.768 30.1699 159.43 29.9399 159.057 29.7857C158.684 29.6315 158.283 29.5564 157.879 29.5651C157.472 29.5627 157.069 29.6412 156.692 29.7961C156.315 29.951 155.973 30.1792 155.684 30.4676C155.396 30.756 155.167 31.0989 155.012 31.4764C154.856 31.854 154.777 32.2587 154.778 32.6672V32.6672Z" fill="white"/>
<path d="M66.9677 10.5218C67.4918 10.4841 68.0177 10.5636 68.5075 10.7545C68.9973 10.9454 69.4388 11.2431 69.8001 11.626C70.1614 12.0089 70.4335 12.4674 70.5968 12.9687C70.7602 13.4699 70.8106 14.0012 70.7445 14.5244C70.7445 17.0978 69.3586 18.577 66.9677 18.577H64.0684V10.5218H66.9677ZM65.315 17.4379H66.8284C67.2029 17.4603 67.5777 17.3987 67.9255 17.2575C68.2733 17.1162 68.5853 16.899 68.8389 16.6215C69.0925 16.3439 69.2812 16.0132 69.3913 15.6532C69.5014 15.2933 69.5302 14.9133 69.4755 14.5408C69.5262 14.1697 69.4945 13.7921 69.3827 13.4348C69.2709 13.0775 69.0817 12.7494 68.8287 12.4741C68.5758 12.1988 68.2652 11.9831 67.9194 11.8423C67.5736 11.7016 67.201 11.6394 66.8284 11.6602H65.315V17.4379Z" fill="white"/>
<path d="M72.1522 15.5359C72.1141 15.1364 72.1596 14.7334 72.2859 14.3526C72.4121 13.9718 72.6163 13.6217 72.8852 13.3247C73.1542 13.0277 73.482 12.7905 73.8477 12.6281C74.2134 12.4657 74.6089 12.3818 75.0088 12.3818C75.4087 12.3818 75.8042 12.4657 76.1699 12.6281C76.5356 12.7905 76.8634 13.0277 77.1324 13.3247C77.4013 13.6217 77.6055 13.9718 77.7317 14.3526C77.8579 14.7334 77.9035 15.1364 77.8654 15.5359C77.9042 15.9358 77.8592 16.3395 77.7333 16.7209C77.6074 17.1023 77.4034 17.453 77.1344 17.7506C76.8653 18.0481 76.5372 18.2859 76.1712 18.4486C75.8051 18.6114 75.4092 18.6954 75.0088 18.6954C74.6084 18.6954 74.2125 18.6114 73.8464 18.4486C73.4804 18.2859 73.1523 18.0481 72.8832 17.7506C72.6142 17.453 72.4102 17.1023 72.2843 16.7209C72.1584 16.3395 72.1134 15.9358 72.1522 15.5359ZM76.6358 15.5359C76.6358 14.2182 76.0459 13.4477 75.0108 13.4477C73.9716 13.4477 73.3871 14.2182 73.3871 15.536C73.3871 16.8642 73.9717 17.6288 75.0108 17.6288C76.046 17.6288 76.6358 16.8589 76.6358 15.5359H76.6358Z" fill="white"/>
<path d="M85.4598 18.577H84.2197L82.9678 14.0998H82.8732L81.6265 18.577H80.3982L78.7285 12.498H79.9411L81.0262 17.1366H81.1155L82.3609 12.498H83.5077L84.7531 17.1366H84.8477L85.9275 12.498H87.123L85.4598 18.577Z" fill="white"/>
<path d="M88.5274 12.4973H89.6781V13.463H89.7675C89.919 13.1162 90.1746 12.8254 90.4986 12.6313C90.8227 12.4372 91.199 12.3493 91.5751 12.38C91.8698 12.3578 92.1658 12.4024 92.441 12.5105C92.7162 12.6186 92.9637 12.7875 93.165 13.0047C93.3664 13.2218 93.5165 13.4816 93.6042 13.7649C93.6919 14.0481 93.715 14.3476 93.6717 14.641V18.5762H92.4763V14.9422C92.4763 13.9653 92.0533 13.4795 91.1692 13.4795C90.9691 13.4702 90.7693 13.5044 90.5836 13.5797C90.3979 13.6551 90.2306 13.7699 90.0932 13.9162C89.9558 14.0625 89.8516 14.2369 89.7877 14.4274C89.7237 14.618 89.7016 14.8201 89.7228 15.02V18.5763H88.5273L88.5274 12.4973Z" fill="white"/>
<path d="M95.5781 10.125H96.7736V18.577H95.5781V10.125Z" fill="white"/>
<path d="M98.4334 15.5341C98.3953 15.1346 98.4409 14.7315 98.5672 14.3507C98.6934 13.9699 98.8976 13.6198 99.1666 13.3228C99.4356 13.0258 99.7635 12.7885 100.129 12.6261C100.495 12.4638 100.89 12.3799 101.29 12.3799C101.69 12.3799 102.086 12.4638 102.451 12.6261C102.817 12.7885 103.145 13.0258 103.414 13.3228C103.683 13.6198 103.887 13.9699 104.013 14.3507C104.14 14.7315 104.185 15.1346 104.147 15.5341C104.186 15.934 104.141 16.3376 104.015 16.719C103.889 17.1005 103.685 17.4512 103.416 17.7487C103.147 18.0463 102.819 18.2841 102.453 18.4468C102.087 18.6095 101.691 18.6936 101.29 18.6936C100.89 18.6936 100.494 18.6095 100.128 18.4468C99.7618 18.2841 99.4337 18.0463 99.1647 17.7487C98.8956 17.4512 98.6916 17.1005 98.5656 16.719C98.4397 16.3376 98.3946 15.934 98.4334 15.5341ZM102.917 15.5341C102.917 14.2164 102.327 13.4458 101.292 13.4458C100.253 13.4458 99.6683 14.2164 99.6683 15.5341C99.6683 16.8624 100.253 17.627 101.292 17.627C102.327 17.627 102.917 16.8571 102.917 15.5341H102.917Z" fill="white"/>
<path d="M105.406 16.859C105.406 15.7647 106.218 15.1339 107.659 15.0442L109.3 14.9493V14.4246C109.3 13.7826 108.877 13.42 108.06 13.42C107.393 13.42 106.93 13.6659 106.797 14.0957H105.64C105.762 13.0516 106.741 12.3818 108.115 12.3818C109.634 12.3818 110.49 13.1405 110.49 14.4246V18.5781H109.339V17.7238H109.245C109.053 18.0303 108.783 18.2801 108.464 18.4478C108.144 18.6154 107.786 18.695 107.425 18.6783C107.171 18.7048 106.914 18.6776 106.671 18.5983C106.428 18.5191 106.204 18.3896 106.014 18.2182C105.823 18.0468 105.671 17.8373 105.566 17.6032C105.462 17.369 105.407 17.1155 105.406 16.859ZM109.3 16.3395V15.8313L107.821 15.9262C106.987 15.9822 106.608 16.267 106.608 16.8029C106.608 17.35 107.081 17.6684 107.732 17.6684C107.922 17.6878 108.115 17.6685 108.297 17.6116C108.48 17.5548 108.65 17.4617 108.796 17.3377C108.943 17.2137 109.063 17.0614 109.149 16.8899C109.236 16.7185 109.287 16.5313 109.3 16.3395Z" fill="white"/>
<path d="M112.062 15.5349C112.062 13.614 113.046 12.3972 114.577 12.3972C114.955 12.3797 115.331 12.4707 115.66 12.6596C115.989 12.8484 116.258 13.1273 116.434 13.4637H116.524V10.125H117.719V18.577H116.574V17.6165H116.479C116.289 17.9507 116.011 18.2261 115.675 18.4131C115.34 18.6 114.96 18.6913 114.577 18.6772C113.036 18.6772 112.062 17.4603 112.062 15.5349ZM113.297 15.5349C113.297 16.8242 113.903 17.6001 114.916 17.6001C115.923 17.6001 116.546 16.8131 116.546 15.5402C116.546 14.2732 115.917 13.475 114.916 13.475C113.91 13.475 113.297 14.2561 113.297 15.5349H113.297Z" fill="white"/>
<path d="M122.664 15.5359C122.626 15.1364 122.671 14.7334 122.798 14.3526C122.924 13.9718 123.128 13.6217 123.397 13.3247C123.666 13.0277 123.994 12.7905 124.359 12.6281C124.725 12.4657 125.121 12.3818 125.521 12.3818C125.92 12.3818 126.316 12.4657 126.682 12.6281C127.047 12.7905 127.375 13.0277 127.644 13.3247C127.913 13.6217 128.117 13.9718 128.243 14.3526C128.37 14.7334 128.415 15.1364 128.377 15.5359C128.416 15.9358 128.371 16.3395 128.245 16.7209C128.119 17.1023 127.915 17.453 127.646 17.7506C127.377 18.0481 127.049 18.2859 126.683 18.4486C126.317 18.6114 125.921 18.6954 125.521 18.6954C125.12 18.6954 124.724 18.6114 124.358 18.4486C123.992 18.2859 123.664 18.0481 123.395 17.7506C123.126 17.453 122.922 17.1023 122.796 16.7209C122.67 16.3395 122.625 15.9358 122.664 15.5359ZM127.148 15.5359C127.148 14.2182 126.558 13.4477 125.522 13.4477C124.483 13.4477 123.899 14.2182 123.899 15.536C123.899 16.8642 124.483 17.6288 125.522 17.6288C126.558 17.6288 127.148 16.8589 127.148 15.5359Z" fill="white"/>
<path d="M129.982 12.4973H131.133V13.463H131.223C131.374 13.1162 131.63 12.8254 131.954 12.6313C132.278 12.4372 132.654 12.3493 133.03 12.38C133.325 12.3578 133.621 12.4024 133.896 12.5105C134.171 12.6186 134.419 12.7875 134.62 13.0047C134.821 13.2218 134.972 13.4816 135.059 13.7649C135.147 14.0481 135.17 14.3476 135.127 14.641V18.5762H133.931V14.9422C133.931 13.9653 133.508 13.4795 132.624 13.4795C132.424 13.4702 132.224 13.5044 132.039 13.5797C131.853 13.6551 131.686 13.7699 131.548 13.9162C131.411 14.0625 131.307 14.2369 131.243 14.4274C131.179 14.618 131.157 14.8201 131.178 15.02V18.5763H129.982V12.4973Z" fill="white"/>
<path d="M141.881 10.9844V12.5255H143.193V13.5361H141.881V16.6619C141.881 17.2986 142.142 17.5775 142.738 17.5775C142.89 17.577 143.042 17.5677 143.193 17.5498V18.5491C142.979 18.5876 142.761 18.6081 142.543 18.6104C141.214 18.6104 140.684 18.1411 140.684 16.969V13.536H139.723V12.5255H140.684V10.9844H141.881Z" fill="white"/>
<path d="M144.826 10.125H146.011V13.4749H146.106C146.265 13.1249 146.527 12.8325 146.858 12.6376C147.188 12.4427 147.571 12.3549 147.953 12.386C148.246 12.37 148.539 12.4191 148.811 12.5299C149.083 12.6406 149.328 12.8103 149.527 13.0267C149.726 13.2432 149.875 13.5011 149.964 13.7821C150.052 14.0631 150.078 14.3602 150.039 14.6522V18.577H148.842V14.9482C148.842 13.9772 148.392 13.4855 147.547 13.4855C147.341 13.4686 147.135 13.4969 146.941 13.5685C146.748 13.6402 146.572 13.7533 146.427 13.9001C146.282 14.0469 146.17 14.2238 146.1 14.4184C146.03 14.613 146.003 14.8206 146.022 15.0266V18.577H144.826L144.826 10.125Z" fill="white"/>
<path d="M157.009 16.9349C156.847 17.4905 156.495 17.9711 156.015 18.2926C155.535 18.6141 154.958 18.756 154.385 18.6936C153.985 18.7042 153.589 18.6274 153.222 18.4688C152.856 18.3101 152.528 18.0733 152.262 17.7748C151.995 17.4762 151.797 17.1231 151.681 16.74C151.564 16.3568 151.532 15.9528 151.586 15.5559C151.533 15.1578 151.566 14.7529 151.682 14.3686C151.799 13.9843 151.996 13.6296 152.261 13.3284C152.526 13.0273 152.852 12.7867 153.217 12.6231C153.583 12.4595 153.979 12.3766 154.379 12.38C156.065 12.38 157.082 13.5356 157.082 15.4445V15.8631H152.804V15.9303C152.785 16.1534 152.813 16.378 152.886 16.5896C152.959 16.8012 153.075 16.9952 153.227 17.1591C153.379 17.3231 153.563 17.4534 153.768 17.5417C153.973 17.63 154.194 17.6743 154.417 17.6718C154.703 17.7063 154.993 17.6546 155.25 17.5234C155.506 17.3921 155.718 17.1873 155.858 16.9349L157.009 16.9349ZM152.804 14.9758H155.864C155.879 14.7718 155.851 14.5669 155.783 14.3742C155.714 14.1815 155.606 14.0054 155.466 13.8571C155.325 13.7088 155.155 13.5916 154.967 13.5131C154.779 13.4345 154.576 13.3964 154.373 13.4011C154.166 13.3984 153.961 13.4374 153.769 13.5156C153.578 13.5939 153.404 13.7098 153.258 13.8565C153.111 14.0033 152.996 14.1779 152.918 14.3702C152.84 14.5624 152.801 14.7683 152.804 14.9758H152.804Z" fill="white"/>
</svg>
