<svg width="1920" height="692" viewBox="0 0 1920 692" fill="none" xmlns="http://www.w3.org/2000/svg">
<g clip-path="url(#clip0_3051_5572)">
<path d="M895.581 231.377H916.419V241.548H924.359V244.363H932.283V207.388L941.354 199H953.505V229.519H960.148V242.469L974.948 242.645V235.095H1015.78V240.469H1023.25V229.464L1027.6 225.438H1047.83L1047.78 232.26V247.124H1053.3L1059.07 241.787V209.573H1073.51L1077.63 213.383V234.326H1098.53V239.701L1101.85 242.772H1112.95V228.44H1137.55V236.886L1142.53 236.861V223.632H1150.01V203.157H1159.69V212.371H1168.83V203.157H1179.9V238.546H1194.57V223.848L1203.68 213.994V237.137H1211.71V246.526H1218.37V249.124H1225.01V214.994L1232.62 207.251H1242.8V235.422H1248.37V247.376L1260.78 247.538V240.569H1295.02V245.53H1301.28V235.371L1304.93 231.655H1321.89L1321.85 237.952V251.673H1326.48L1331.32 246.746V217.01H1343.42L1346.88 220.527V239.859H1364.4V244.821L1367.19 247.656H1376.5V234.426H1397.12V242.223L1401.3 242.2V229.988H1407.57V211.088H1415.69V219.593H1423.35V211.088H1432.63V243.754H1444.93V230.187L1452.57 221.092V231.377H1462.41V241.548H1469.92V244.363H1477.4V207.388L1485.97 199H1497.46V229.519H1503.73V242.469L1517.72 242.645V235.095H1556.29V240.469H1563.35V229.464L1567.47 225.438H1586.58L1586.53 232.26V247.124H1591.75L1597.2 241.787V209.573H1610.84L1614.73 213.383V234.326H1634.48V239.701L1637.62 242.772H1648.11V228.44H1671.35V236.886L1676.06 236.861V223.632H1683.12V203.157H1692.27V212.371H1700.9V203.157H1711.36V238.546H1725.22V223.848L1733.83 213.994V237.137H1741.42V246.526H1747.71V249.124H1753.99V214.994L1761.17 207.251H1770.8V235.422H1776.06V247.376L1787.79 247.538V240.569H1820.14V245.53H1826.06V235.371L1829.51 231.655H1845.53L1845.49 237.952V251.673H1849.86L1854.43 246.746V217.01H1865.87L1869.14 220.527V239.859H1885.7V244.821L1888.33 247.656H1897.12V234.426H1916.61V242.223L1920.56 242.2V229.988H1926.48V211.088H1934.15V219.593H1941.39V211.088H1950.16V243.754H1961.78V230.187L1969 221.092V541.558H1733.17V540.923H1452.57V541.558H1202.97V540.923H609.028V541.558H359.43V540.923H78.8342V541.558H-157V221.092L-149.78 230.187V243.754H-138.159V211.088H-129.389V219.593H-122.153V211.088H-114.479V229.988H-108.559V242.2L-104.612 242.223V234.426H-85.1205V247.656H-76.3268L-73.6958 244.821V239.859H-57.1369V220.527L-53.8726 217.01H-42.4341V246.746L-37.8627 251.673H-33.487V237.952L-33.53 231.655H-17.505L-14.0562 235.371V245.53H-8.13579V240.569H24.2108V247.538L35.936 247.376V235.422H41.1983V207.251H50.8251L58.0115 214.994V249.124H64.2899V246.526H70.58V237.137H78.1661V213.994L86.7768 223.848V238.546H100.636V203.157H111.097V212.371H119.726V203.157H128.878V223.632H135.939V236.861L140.646 236.886V228.44H163.892V242.772H174.38L177.518 239.701V234.326H197.266V213.383L201.16 209.573H214.801V241.787L220.253 247.124H225.472V232.26L225.421 225.438H244.533L248.646 229.464V240.469H255.707V235.095H294.284V242.645L308.268 242.469V229.519H314.544V199H326.026L334.596 207.388V244.363H342.084V241.548H349.586V231.377H359.43V221.092L367.071 230.187V243.754H379.371V211.088H388.653V219.593H396.311V211.088H404.433V229.988H410.699V242.2L414.875 242.223V234.426H435.505V247.656H444.812L447.596 244.821V239.859H465.121V220.527L468.576 217.01H480.682V246.746L485.521 251.673H490.152V237.952L490.106 231.655H507.066L510.716 235.371V245.53H516.982V240.569H551.217V247.538L563.626 247.376V235.422H569.196V207.251H579.384L586.99 214.994V249.124H593.635V246.526H600.292V237.137H608.321V213.994L617.434 223.848V238.546H632.103V203.157H643.173V212.371H652.306V203.157H661.993V223.632H669.466V236.861L674.447 236.886V228.44H699.05V242.772H710.15L713.471 239.701V234.326H734.372V213.383L738.492 209.573H752.931V241.787L758.701 247.124H764.224V232.26L764.17 225.438H784.397L788.75 229.464V240.469H796.223V235.095H837.052V242.645L851.852 242.469V229.519H858.495V199H870.646L879.717 207.388V244.363H887.641V241.548H895.581V231.377Z" fill="#FFF5E8"/>
<path d="M896.636 325.768H911.863V338.825H923.079L937.359 311.639H973.24V331.643H993.698V346.005H1011.64V321.198H1023.64V332.297H1060.94V342.089H1109.45V318.587H1139.2L1152.4 343.721H1166.01L1182.94 311.491H1196.46L1212.29 341.622H1224.58V307.49H1243.94V300H1260.58V327.727H1271.17V331.896H1276.68V343.964H1286.08L1298.06 318.837H1328.14V337.326H1345.3V350.6H1360.34V327.672H1370.41V337.93H1401.68V346.98H1442.35V325.259H1467.3L1478.36 348.488H1489.78L1503.97 318.7H1515.31L1528.58 346.549H1538.88V315.002H1555.12V308.08H1569.07V333.706H1577.95V325.768H1585.14V338.825H1595.74L1609.23 311.639H1643.14V331.643H1662.46V346.005H1679.42V321.198H1690.76V332.297H1726V342.089H1771.83V318.587H1799.94L1812.42 343.721H1825.28L1841.27 311.491H1854.05L1869 341.622H1880.61V307.49H1898.9V300H1914.63V327.727H1924.63V331.896H1929.84V343.964H1938.73L1950.04 318.837H1978.47V337.326H1994.68V350.6H2008.89V327.672H2018.4V337.93H2047.95V346.98H2086.38V325.259H2109.95L2120.41 348.488H2131.19L2144.6 318.7H2155.31L2167.85 346.549H2177.59V315.002H2192.92V308.08H2206.11V333.706H2214.5L2243 537H-377.499L-406 333.706H-397.613V308.08H-384.426V315.002H-369.09V346.549H-359.352L-346.814 318.7H-336.103L-322.692 348.488H-311.907L-301.449 325.259H-277.881V346.98H-239.447V337.93H-209.902V327.672H-200.394V350.6H-186.176V337.326H-169.969V318.837H-141.542L-130.229 343.964H-121.343V331.896H-116.135V327.727H-106.133V300H-90.4049V307.49H-72.1145V341.622H-60.5013L-45.5479 311.491H-32.7733L-16.7787 343.721H-3.91672L8.55631 318.587H36.6642V342.089H82.5015V332.297H117.738V321.198H129.078V346.005H146.034V331.643H165.364V311.639H199.266L212.759 338.825H223.356V325.768H230.55V333.706H239.426V308.08H253.383V315.002H269.614V346.549H279.92L293.19 318.7H304.526L318.72 348.488H330.134L341.203 325.259H366.146V346.98H406.823V337.93H438.093V327.672H448.155V350.6H463.203V337.326H480.356V318.837H510.442L522.415 343.964H531.819V331.896H537.332V327.727H547.918V300H564.564V307.49H583.921V341.622H596.212L612.038 311.491H625.559L642.487 343.721H656.099L669.3 318.587H699.049V342.089H747.561V332.297H784.854V321.198H796.856V346.005H814.802V331.643H835.259V311.639H871.14L885.42 338.825H896.636V325.768Z" fill="#FFEAD3"/>
<path d="M-15 -5H1920V343.5V692H952.5H-15V-5Z" fill="url(#paint0_linear_3051_5572)"/>
</g>
<defs>
<linearGradient id="paint0_linear_3051_5572" x1="945.496" y1="-10.163" x2="945.496" y2="692" gradientUnits="userSpaceOnUse">
<stop stop-color="#FFEAD3" stop-opacity="0"/>
<stop offset="0.744579" stop-color="#FFD6A8"/>
<stop offset="1" stop-color="#FFF0DF" stop-opacity="0"/>
</linearGradient>
<clipPath id="clip0_3051_5572">
<rect width="1920" height="697" fill="white" transform="translate(0 -5)"/>
</clipPath>
</defs>
</svg>
