<svg width="193" height="54" viewBox="0 0 193 54" fill="none" xmlns="http://www.w3.org/2000/svg">
<path d="M185.582 53.8657H7.27488C3.35211 53.8657 0.142578 50.8433 0.142578 47.1493V6.8508C0.142578 3.15676 3.35211 0.134377 7.27488 0.134377H185.582C189.505 0.134377 192.715 3.15676 192.715 6.8508V47.1493C192.715 50.8433 189.505 53.8657 185.582 53.8657Z" fill="black"/>
<path d="M185.582 0.134377H7.27488C3.35211 0.134377 0.142578 3.15676 0.142578 6.8508V47.1493C0.142578 50.8433 3.35211 53.8657 7.27488 53.8657H185.582C189.505 53.8657 192.715 50.8433 192.715 47.1493V6.8508C192.715 3.15676 189.505 0.134377 185.582 0.134377ZM185.582 1.209C188.886 1.209 191.573 3.74029 191.573 6.8508V47.1493C191.573 50.2603 188.886 52.7916 185.582 52.7916H7.27488C3.97177 52.7916 1.28375 50.2603 1.28375 47.1493V6.8508C1.28375 3.74029 3.97177 1.209 7.27488 1.209H185.582Z" fill="#A6A6A6"/>
<path d="M69.5385 13.894C69.5385 15.0194 69.2062 15.9156 68.5408 16.5842C67.7849 17.3791 66.7997 17.7769 65.5886 17.7769C64.4289 17.7769 63.4428 17.3739 62.6318 16.5668C61.8194 15.7603 61.4141 14.7602 61.4141 13.567C61.4141 12.3732 61.8194 11.3737 62.6318 10.5666C63.4428 9.76014 64.4289 9.35661 65.5886 9.35661C66.1641 9.35661 66.7151 9.46945 67.2382 9.69458C67.7613 9.92025 68.1809 10.2198 68.4948 10.595L67.7885 11.3038C67.2566 10.6663 66.5241 10.3478 65.5886 10.3478C64.7428 10.3478 64.0114 10.6459 63.3941 11.2425C62.7767 11.8397 62.4682 12.6141 62.4682 13.567C62.4682 14.5199 62.7767 15.2943 63.3941 15.8916C64.0114 16.4881 64.7428 16.7862 65.5886 16.7862C66.4859 16.7862 67.234 16.4865 67.833 15.8863C68.2217 15.4953 68.4466 14.9518 68.5067 14.2538H65.5886V13.2857H69.4825C69.5202 13.4962 69.5385 13.6982 69.5385 13.894Z" fill="white"/>
<path d="M69.5377 13.8944H69.4037C69.4027 14.9941 69.0825 15.8483 68.4452 16.4896L68.4438 16.4907L68.4432 16.4918C67.7113 17.2593 66.7706 17.6414 65.5878 17.643C64.4589 17.6414 63.5141 17.2552 62.7252 16.4723C61.9379 15.6878 61.5486 14.7302 61.5471 13.5674C61.5486 12.4042 61.9379 11.4471 62.7252 10.6631C63.5141 9.87972 64.4589 9.49299 65.5878 9.49138C66.146 9.49138 66.6776 9.60059 67.1845 9.81834C67.6919 10.0377 68.0927 10.3252 68.3914 10.6821L68.494 10.5954L68.3993 10.5005L67.693 11.2098L67.7877 11.3043L67.8908 11.2183C67.3341 10.5492 66.5526 10.2119 65.5878 10.2139C64.7106 10.2129 63.9389 10.5272 63.3006 11.1464C62.6562 11.7677 62.3323 12.5856 62.3334 13.5674C62.3323 14.5492 62.6562 15.3672 63.3006 15.9884C63.9389 16.6077 64.7106 16.922 65.5878 16.9209C66.5148 16.9226 67.3049 16.6072 67.9268 15.9817C68.3422 15.564 68.5777 14.9853 68.6394 14.2658L68.6519 14.1199H65.7217V13.4205H69.4817V13.2862L69.3498 13.3098C69.3865 13.5134 69.4037 13.707 69.4037 13.8944H69.5377H69.6716C69.6716 13.6902 69.6527 13.4804 69.6135 13.2621L69.5936 13.1518H65.4539V14.2543V14.3886H68.5059V14.2543L68.3725 14.2427C68.3135 14.9187 68.0989 15.4276 67.7374 15.7918C67.162 16.3668 66.4558 16.6507 65.5878 16.6523C64.7733 16.6512 64.0822 16.3699 63.4864 15.7954C62.8963 15.2229 62.6027 14.492 62.6013 13.5674C62.6027 12.6429 62.8963 11.912 63.4864 11.3395C64.0822 10.7649 64.7733 10.4837 65.5878 10.4826C66.4934 10.4847 67.1772 10.7848 67.6852 11.3909L67.7794 11.5032L68.5887 10.6904L68.6755 10.6034L68.5964 10.5093C68.2674 10.1159 67.829 9.80356 67.2901 9.57171C66.7503 9.33919 66.1806 9.22272 65.5878 9.22272C64.3972 9.22165 63.3697 9.64143 62.5363 10.4721C61.6998 11.3012 61.2782 12.3433 61.2793 13.5674C61.2782 14.791 61.6998 15.8337 62.5369 16.6633C63.3697 17.4935 64.3972 17.9127 65.5878 17.9116C66.8277 17.9127 67.8562 17.4996 68.6367 16.6774L68.5399 16.5846L68.6346 16.6796C69.3283 15.9843 69.6725 15.0451 69.6716 13.8944H69.5377Z" fill="white"/>
<path d="M75.7105 10.5276H72.0512V13.0831H75.3512V14.0516H72.0512V16.607H75.7105V17.5972H71.0195V9.53746H75.7105V10.5276Z" fill="white"/>
<path d="M75.7116 10.5276V10.3932H71.9183V13.2173H75.2184V13.9168L71.9183 13.9172V16.7413H75.5777V17.4628H71.1546V9.67174H75.5777V10.5276H75.7116V10.3932V10.5276H75.8456V9.53742V9.40309H70.8867V17.7314H75.8456V16.607V16.4727H72.1862V14.1858H75.4863V13.083V12.9487H72.1862V10.6619H75.8456V10.5276H75.7116Z" fill="white"/>
<path d="M80.0647 17.5972H79.0314V10.5276H76.7871V9.53746H82.309V10.5276H80.0647V17.5972Z" fill="white"/>
<path d="M80.0658 17.5971V17.4628H79.1665V10.3932H76.9221V9.67174H82.1762V10.3932H79.9318V17.5971H80.0658V17.4628V17.5971H80.1997V10.6619H82.444V9.53742V9.40309H76.6543V10.5276V10.6619H78.8986V17.7314H80.0658H80.1997V17.5971H80.0658Z" fill="white"/>
<path d="M86.3047 17.5972V9.53746H87.3368V17.5972H86.3047Z" fill="white"/>
<path d="M86.3038 17.5971H86.4378V9.67174H87.2021V17.4628H86.3038V17.5971H86.4378H86.3038V17.7314H87.336H87.4699V9.40309H86.3038H86.1699V17.7314H86.3038V17.5971Z" fill="white"/>
<path d="M91.9161 17.5972H90.8829V10.5276H88.6387V9.53746H94.1604V10.5276H91.9161V17.5972Z" fill="white"/>
<path d="M91.9172 17.5971V17.4628H91.0179V10.3932H88.7737V9.67174H94.0276V10.3932H91.7833V17.5971H91.9172V17.4628V17.5971H92.0511V10.6619H94.2954V9.53742V9.40309H88.5059V10.5276V10.6619H90.75V17.7314H91.9172H92.0511V17.5971H91.9172Z" fill="white"/>
<path d="M99.4851 15.8805C100.08 16.4845 100.808 16.7862 101.668 16.7862C102.529 16.7862 103.257 16.4845 103.851 15.8805C104.446 15.2766 104.744 14.5046 104.744 13.567C104.744 12.6294 104.446 11.8574 103.851 11.2535C103.257 10.6495 102.529 10.3478 101.668 10.3478C100.808 10.3478 100.08 10.6495 99.4851 11.2535C98.8913 11.8574 98.5932 12.6294 98.5932 13.567C98.5932 14.5046 98.8913 15.2766 99.4851 15.8805ZM104.615 16.5553C103.825 17.3701 102.842 17.7769 101.668 17.7769C100.493 17.7769 99.5112 17.3701 98.723 16.5553C97.9324 15.7414 97.5391 14.7451 97.5391 13.567C97.5391 12.3889 97.9324 11.3925 98.723 10.5787C99.5112 9.76376 100.493 9.35661 101.668 9.35661C102.836 9.35661 103.816 9.76591 104.609 10.584C105.402 11.402 105.798 12.3963 105.798 13.567C105.798 14.7451 105.403 15.7414 104.615 16.5553Z" fill="white"/>
<path d="M99.4843 15.881L99.3891 15.9754C100.006 16.6035 100.775 16.9226 101.667 16.9209C102.559 16.9226 103.329 16.6035 103.945 15.9754C104.566 15.3468 104.878 14.5334 104.877 13.5674C104.878 12.6015 104.566 11.7881 103.945 11.1595C103.329 10.5314 102.559 10.2123 101.667 10.2139C100.775 10.2123 100.006 10.5314 99.3891 11.1595C98.7697 11.7881 98.4568 12.6015 98.4584 13.5674C98.4568 14.5334 98.7697 15.3468 99.3891 15.9754L99.4843 15.881L99.5795 15.7865C99.0114 15.2066 98.7273 14.4772 98.7263 13.5674C98.7273 12.6576 99.0114 11.9282 99.5795 11.3483C100.153 10.7686 100.838 10.4842 101.667 10.4826C102.497 10.4842 103.183 10.7686 103.755 11.3483C104.324 11.9282 104.608 12.6576 104.609 13.5674C104.608 14.4772 104.324 15.2066 103.755 15.7865C103.183 16.3663 102.497 16.6507 101.667 16.6523C100.838 16.6507 100.153 16.3663 99.5795 15.7865L99.4843 15.881ZM104.614 16.5557L104.518 16.4624C103.75 17.2515 102.811 17.6414 101.667 17.643C100.523 17.6414 99.5842 17.2515 98.8177 16.4624L98.8141 16.4582L98.8177 16.4624C98.0514 15.6705 97.6732 14.7155 97.6721 13.5674C97.6732 12.4193 98.0514 11.4644 98.8177 10.6725C99.5842 9.88335 100.523 9.49299 101.667 9.49138C102.804 9.49299 103.741 9.88496 104.513 10.6783C105.282 11.4738 105.662 12.4273 105.664 13.5674C105.662 14.7155 105.283 15.6705 104.518 16.4624L104.614 16.5557L104.71 16.6491C105.522 15.8127 105.933 14.7753 105.932 13.5674C105.933 12.3664 105.52 11.3311 104.705 10.4911C103.889 9.64774 102.866 9.22125 101.667 9.22272C100.462 9.22125 99.4367 9.64572 98.6258 10.4858V10.4853C97.8124 11.3221 97.4032 12.3596 97.4043 13.5674C97.4032 14.7753 97.8124 15.8127 98.6258 16.6496L98.6294 16.6534L98.6258 16.6491C99.4367 17.4892 100.462 17.9127 101.667 17.9116C102.872 17.9127 103.898 17.4892 104.71 16.6491L104.614 16.5557Z" fill="white"/>
<path d="M107.246 17.5972V9.53746H108.503L112.408 15.8074H112.452L112.408 14.2541V9.53746H113.441V17.5972H112.364L108.278 11.0234H108.233L108.278 12.5772V17.5972H107.246Z" fill="white"/>
<path d="M107.247 17.5971H107.381V9.67174H108.429L112.335 15.9417H112.454H112.591L112.543 14.2521V9.67174H113.308V17.4628H112.439L108.353 10.889H108.234H108.097L108.145 12.5793V17.4628H107.247V17.5971H107.381H107.247V17.7314H108.279H108.413V12.575L108.368 11.0197L108.234 11.0234V11.1577H108.279V11.0234L108.165 11.0948L112.29 17.7314H113.442H113.576V9.40309H112.409H112.275V14.2557L112.32 15.811L112.454 15.8073V15.673H112.409V15.8073L112.523 15.736L108.578 9.40309H107.247H107.113V17.7314H107.247V17.5971Z" fill="white"/>
<path d="M149.247 40.4327H151.746V23.6401H149.247V40.4327ZM171.756 29.6891L168.891 36.9696H168.805L165.832 29.6891H163.14L167.599 39.8649L165.057 45.5251H167.664L174.535 29.6891H171.756ZM157.584 38.5254C156.764 38.5254 155.623 38.115 155.623 37.0992C155.623 35.8031 157.046 35.3062 158.272 35.3062C159.372 35.3062 159.887 35.5438 160.556 35.8682C160.362 37.4235 159.026 38.5254 157.584 38.5254ZM157.885 29.3217C156.076 29.3217 154.202 30.1214 153.427 31.8929L155.645 32.8217C156.119 31.8929 157.001 31.5901 157.928 31.5901C159.22 31.5901 160.534 32.3683 160.556 33.7509V33.9236C160.103 33.6643 159.135 33.2756 157.95 33.2756C155.559 33.2756 153.124 34.5931 153.124 37.0561C153.124 39.303 155.085 40.7507 157.281 40.7507C158.962 40.7507 159.887 39.9945 160.47 39.1089H160.556V40.4049H162.968V33.9665C162.968 30.9857 160.75 29.3217 157.885 29.3217ZM142.441 31.7333H138.887V25.9772H142.441C144.309 25.9772 145.37 27.5287 145.37 28.8552C145.37 30.1566 144.309 31.7333 142.441 31.7333ZM142.377 23.6401H136.389V40.4327H138.887V34.0705H142.377C145.146 34.0705 147.869 32.0592 147.869 28.8552C147.869 25.6514 145.146 23.6401 142.377 23.6401ZM109.724 38.5285C107.998 38.5285 106.552 37.0787 106.552 35.0874C106.552 33.0751 107.998 31.6033 109.724 31.6033C111.429 31.6033 112.766 33.0751 112.766 35.0874C112.766 37.0787 111.429 38.5285 109.724 38.5285ZM112.594 30.6294H112.507C111.947 29.9587 110.867 29.3528 109.508 29.3528C106.66 29.3528 104.05 31.863 104.05 35.0874C104.05 38.2903 106.66 40.779 109.508 40.779C110.867 40.779 111.947 40.1729 112.507 39.4809H112.594V40.3031C112.594 42.4891 111.429 43.6577 109.552 43.6577C108.02 43.6577 107.07 42.5536 106.682 41.6233L104.503 42.5321C105.129 44.0469 106.79 45.9082 109.552 45.9082C112.486 45.9082 114.967 44.1766 114.967 39.9568V29.6991H112.594V30.6294ZM116.693 40.4327H119.196V23.6395H116.693V40.4327ZM122.886 34.8927C122.821 32.6852 124.59 31.5602 125.863 31.5602C126.856 31.5602 127.697 32.0576 127.977 32.7724L122.886 34.8927ZM130.653 32.9885C130.179 31.7113 128.732 29.3528 125.776 29.3528C122.842 29.3528 120.404 31.6683 120.404 35.0659C120.404 38.2688 122.821 40.779 126.057 40.779C128.668 40.779 130.179 39.1775 130.804 38.2472L128.862 36.9485C128.215 37.9009 127.33 38.5285 126.057 38.5285C124.784 38.5285 123.878 37.944 123.295 36.7974L130.911 33.6376L130.653 32.9885ZM69.9737 31.1058V33.5294H75.7559C75.5833 34.8927 75.1302 35.8881 74.4397 36.5807C73.5985 37.425 72.2823 38.3553 69.9737 38.3553C66.4136 38.3553 63.6305 35.4772 63.6305 31.9065C63.6305 28.3358 66.4136 25.4572 69.9737 25.4572C71.8941 25.4572 73.2961 26.2149 74.3319 27.1887L76.0364 25.4793C74.5909 24.0939 72.6704 23.0336 69.9737 23.0336C65.0974 23.0336 60.998 27.0156 60.998 31.9065C60.998 36.7974 65.0974 40.779 69.9737 40.779C72.6062 40.779 74.5909 39.9138 76.1442 38.2903C77.7409 36.6888 78.2373 34.4383 78.2373 32.6207C78.2373 32.0576 78.1943 31.5387 78.1075 31.1058H69.9737ZM84.8112 38.5285C83.0847 38.5285 81.5959 37.1002 81.5959 35.0659C81.5959 33.01 83.0847 31.6033 84.8112 31.6033C86.5369 31.6033 88.0258 33.01 88.0258 35.0659C88.0258 37.1002 86.5369 38.5285 84.8112 38.5285ZM84.8112 29.3528C81.6607 29.3528 79.0931 31.7548 79.0931 35.0659C79.0931 38.3553 81.6607 40.779 84.8112 40.779C87.961 40.779 90.5286 38.3553 90.5286 35.0659C90.5286 31.7548 87.961 29.3528 84.8112 29.3528ZM97.2839 38.5285C95.5581 38.5285 94.0691 37.1002 94.0691 35.0659C94.0691 33.01 95.5581 31.6033 97.2839 31.6033C99.0098 31.6033 100.499 33.01 100.499 35.0659C100.499 37.1002 99.0098 38.5285 97.2839 38.5285ZM97.2839 29.3528C94.1336 29.3528 91.5665 31.7548 91.5665 35.0659C91.5665 38.3553 94.1336 40.779 97.2839 40.779C100.434 40.779 103.001 38.3553 103.001 35.0659C103.001 31.7548 100.434 29.3528 97.2839 29.3528Z" fill="white"/>
<path d="M20.108 43.6426L20.0085 43.5471C19.6188 43.1335 19.3887 42.4912 19.3887 41.6596V41.8553V12.1473C19.3887 12.1446 19.3887 12.1426 19.3887 12.1404C19.3887 12.143 19.3887 12.1451 19.3887 12.1478V12.3441C19.3887 11.4435 19.6569 10.7652 20.1064 10.3584L36.6995 27.001L20.108 43.6426ZM19.3887 12.1388C19.3887 12.0648 19.3907 11.9929 19.3944 11.9221C19.3907 11.9924 19.3887 12.0648 19.3887 12.1388ZM19.3944 11.9189C19.3944 11.918 19.3944 11.9169 19.3948 11.9158C19.3944 11.9169 19.3944 11.918 19.3944 11.9189ZM19.3948 11.9095C19.3948 11.909 19.3948 11.9084 19.3948 11.9079C19.3948 11.9084 19.3948 11.909 19.3948 11.9095Z" fill="url(#paint0_linear_3010_6595)"/>
<path d="M42.2294 32.7471L42.3556 32.6752L48.9084 28.9407C49.5331 28.5845 49.9495 28.1526 50.1572 27.6957C49.9501 28.1526 49.5336 28.585 48.9084 28.9413L42.3556 32.6757L42.2294 32.7471ZM42.231 32.5503L36.6992 27.0009L42.2305 21.4525L48.9084 25.2577C49.7564 25.741 50.2325 26.3639 50.3121 27.0004C50.3121 27.0009 50.3121 27.002 50.3121 27.0029C50.2325 27.6379 49.7564 28.2613 48.9084 28.7445L42.231 32.5503Z" fill="url(#paint1_linear_3010_6595)"/>
<path d="M21.2915 44.2764C20.828 44.2764 20.4235 44.1252 20.1081 43.8398L20.1086 43.8393C20.424 44.1247 20.829 44.2764 21.2925 44.2764C21.3327 44.2764 21.3736 44.2753 21.415 44.2733C21.373 44.2753 21.3317 44.2764 21.2915 44.2764ZM21.292 44.0796C20.8285 44.0801 20.424 43.9285 20.1086 43.643V43.6426L36.7001 27.0011L42.2319 32.5504L22.7924 43.6289C22.2545 43.9348 21.7449 44.0796 21.292 44.0796ZM20.104 43.8362C20.0746 43.8094 20.0458 43.7811 20.0176 43.7517L20.104 43.8362Z" fill="url(#paint2_linear_3010_6595)"/>
<path d="M36.6985 27.001L20.1055 10.3584C20.4209 10.0735 20.8248 9.92234 21.2878 9.92234C21.7419 9.92234 22.2519 10.0677 22.7908 10.3741L42.2298 21.4525L36.6985 27.001ZM42.3549 21.3272L22.7908 10.178C22.2519 9.87143 21.7419 9.72609 21.2878 9.72609C21.2856 9.72609 21.2841 9.72609 21.282 9.72609C21.2847 9.72609 21.2867 9.72609 21.2899 9.72609C21.743 9.72609 22.2524 9.87089 22.7908 10.1774L42.3549 21.3272Z" fill="url(#paint3_linear_3010_6595)"/>
<path d="M21.4156 44.2734C21.8366 44.2493 22.3028 44.1039 22.793 43.8253L42.2309 32.7474L22.793 43.8253C22.3032 44.1045 21.8366 44.2493 21.4156 44.2734ZM20.1087 43.84L20.1046 43.8363C20.1061 43.8374 20.1077 43.8389 20.1087 43.84ZM20.0182 43.7518L20.0098 43.7435V43.743C20.013 43.7461 20.0155 43.7492 20.0182 43.7518Z" fill="black"/>
<path d="M42.2305 32.7471L42.3573 32.6752L42.2305 32.7471Z" fill="url(#paint4_linear_3010_6595)"/>
<path d="M21.2932 44.2764C20.8297 44.2764 20.4247 44.1247 20.1093 43.8393L20.1087 43.8398C20.1077 43.8387 20.1061 43.8372 20.1046 43.8362L20.0182 43.7517C20.0155 43.749 20.013 43.7459 20.0098 43.7428L20.1093 43.643C20.4247 43.9285 20.8291 44.0801 21.2926 44.0796C21.7456 44.0796 22.2552 43.9348 22.793 43.6289L42.2325 32.5504L42.3571 32.6754L42.2309 32.7472L22.793 43.8252C22.3028 44.1038 21.8366 44.2491 21.4156 44.2733C21.3742 44.2753 21.3334 44.2764 21.2932 44.2764Z" fill="url(#paint5_linear_3010_6595)"/>
<path d="M20.0085 43.7432C19.6188 43.3296 19.3887 42.6873 19.3887 41.8557V41.8552C19.3887 42.6873 19.6188 43.329 20.0085 43.7426V43.7432Z" fill="black"/>
<path d="M20.0085 43.7427C19.6188 43.3291 19.3887 42.6874 19.3887 41.8552V41.6595C19.3887 42.4911 19.6188 43.1334 20.0085 43.547L20.108 43.6425L20.0085 43.7427Z" fill="url(#paint6_linear_3010_6595)"/>
<path d="M20.0098 43.7427L20.1098 43.6425V43.6429L20.0098 43.7427Z" fill="url(#paint7_linear_3010_6595)"/>
<path d="M50.1582 27.6958C50.2617 27.4691 50.3138 27.2361 50.3138 27.0031C50.3138 27.0027 50.3138 27.0021 50.3138 27.0021C50.3138 27.2356 50.2617 27.4685 50.1582 27.6958Z" fill="black"/>
<path d="M42.355 32.6753L42.2305 32.5504L48.9078 28.7446C49.7559 28.2614 50.232 27.638 50.3115 27.003C50.3115 27.2361 50.2597 27.469 50.1567 27.6957C49.949 28.1527 49.5326 28.5846 48.9078 28.9408L42.355 32.6753Z" fill="url(#paint8_linear_3010_6595)"/>
<path d="M50.3125 27.001V27.0004C50.312 26.2978 49.8438 25.5952 48.9088 25.0621L42.356 21.3276H42.3555L42.356 21.3272L48.9088 25.0615C49.8448 25.5947 50.3136 26.2983 50.3125 27.001Z" fill="#404040"/>
<path d="M50.3121 27.0005C50.2325 26.364 49.7564 25.7412 48.9084 25.2578L42.2305 21.4526L42.355 21.3277H42.3556L48.9084 25.0621C49.8433 25.5953 50.3115 26.2978 50.3121 27.0005Z" fill="url(#paint9_linear_3010_6595)"/>
<path d="M19.3887 12.1406C19.3887 12.1401 19.3887 12.1396 19.3887 12.139C19.3887 12.1396 19.3887 12.1401 19.3887 12.1406ZM19.3944 11.9223C19.3944 11.9213 19.3944 11.9202 19.3944 11.9191C19.3944 11.9202 19.3944 11.9213 19.3944 11.9223ZM19.3948 11.916C19.3948 11.9139 19.3948 11.9119 19.3948 11.9097C19.3948 11.9119 19.3948 11.9139 19.3948 11.916ZM19.3948 11.9081C19.4724 10.5282 20.2205 9.73105 21.2788 9.72634C20.8199 9.72903 20.4203 9.88015 20.1074 10.1629V10.1624L20.1037 10.1661C20.0708 10.196 20.0394 10.2275 20.0085 10.26C19.6569 10.6331 19.4351 11.1919 19.3948 11.9081Z" fill="#404040"/>
<path d="M19.3887 12.3442V12.148C19.3887 12.1453 19.3887 12.1431 19.3887 12.1406C19.3887 12.1401 19.3887 12.1395 19.3887 12.139C19.3887 12.065 19.3907 11.9926 19.3944 11.9223C19.3944 11.9212 19.3944 11.9202 19.3944 11.9191C19.3944 11.9182 19.3944 11.9171 19.3948 11.916C19.3948 11.9139 19.3948 11.9118 19.3948 11.9097C19.3948 11.9092 19.3948 11.9086 19.3948 11.9081C19.4351 11.1918 19.6569 10.633 20.0085 10.26L20.1064 10.3586C19.6569 10.7653 19.3887 11.4437 19.3887 12.3442ZM20.1037 10.1661L20.1075 10.1623C20.1064 10.164 20.1048 10.165 20.1037 10.1661Z" fill="url(#paint10_linear_3010_6595)"/>
<path d="M42.232 21.4526L22.793 10.3742C22.2541 10.0678 21.7441 9.92243 21.29 9.92243C20.827 9.92243 20.4231 10.0735 20.1077 10.3585L20.0098 10.2599C20.0407 10.2274 20.072 10.1958 20.105 10.166C20.1061 10.1649 20.1077 10.1638 20.1087 10.1627C20.4216 9.87998 20.8212 9.72886 21.28 9.72617C21.2811 9.72617 21.2826 9.72617 21.2842 9.72617C21.2863 9.72617 21.2878 9.72617 21.29 9.72617C21.7441 9.72617 22.2541 9.87152 22.793 10.1781L42.3571 21.3273L42.3565 21.3277L42.232 21.4526Z" fill="url(#paint11_linear_3010_6595)"/>
<defs>
<linearGradient id="paint0_linear_3010_6595" x1="35.2281" y1="11.8339" x2="12.6846" y2="34.3098" gradientUnits="userSpaceOnUse">
<stop stop-color="#00A0FF"/>
<stop offset="0.00657445" stop-color="#00A1FF"/>
<stop offset="0.2601" stop-color="#00BEFF"/>
<stop offset="0.5122" stop-color="#00D2FF"/>
<stop offset="0.7604" stop-color="#00DFFF"/>
<stop offset="1" stop-color="#00E3FF"/>
</linearGradient>
<linearGradient id="paint1_linear_3010_6595" x1="51.3453" y1="27.0017" x2="18.9394" y2="27.0017" gradientUnits="userSpaceOnUse">
<stop stop-color="#FFE000"/>
<stop offset="0.4087" stop-color="#FFBD00"/>
<stop offset="0.7754" stop-color="#FFA500"/>
<stop offset="1" stop-color="#FF9C00"/>
</linearGradient>
<linearGradient id="paint2_linear_3010_6595" x1="39.283" y1="30.0843" x2="8.71226" y2="60.5633" gradientUnits="userSpaceOnUse">
<stop stop-color="#FF3A44"/>
<stop offset="1" stop-color="#C31162"/>
</linearGradient>
<linearGradient id="paint3_linear_3010_6595" x1="15.8047" y1="0.370923" x2="29.4558" y2="13.981" gradientUnits="userSpaceOnUse">
<stop stop-color="#32A071"/>
<stop offset="0.0685" stop-color="#2DA771"/>
<stop offset="0.4762" stop-color="#15CF74"/>
<stop offset="0.8009" stop-color="#06E775"/>
<stop offset="1" stop-color="#00F076"/>
</linearGradient>
<linearGradient id="paint4_linear_3010_6595" x1="51.3936" y1="27.0021" x2="18.8197" y2="27.0021" gradientUnits="userSpaceOnUse">
<stop stop-color="#CCB300"/>
<stop offset="0.4087" stop-color="#CC9700"/>
<stop offset="0.7754" stop-color="#CC8400"/>
<stop offset="1" stop-color="#CC7D00"/>
</linearGradient>
<linearGradient id="paint5_linear_3010_6595" x1="39.2836" y1="30.0843" x2="8.71291" y2="60.5633" gradientUnits="userSpaceOnUse">
<stop stop-color="#CC2E36"/>
<stop offset="1" stop-color="#9C0E4E"/>
</linearGradient>
<linearGradient id="paint6_linear_3010_6595" x1="35.2282" y1="11.8338" x2="12.6847" y2="34.3098" gradientUnits="userSpaceOnUse">
<stop stop-color="#008DE0"/>
<stop offset="0.00657445" stop-color="#008DE0"/>
<stop offset="0.2601" stop-color="#00A7E0"/>
<stop offset="0.5122" stop-color="#00B8E0"/>
<stop offset="0.7604" stop-color="#00C4E0"/>
<stop offset="1" stop-color="#00C7E0"/>
</linearGradient>
<linearGradient id="paint7_linear_3010_6595" x1="39.3845" y1="30.0848" x2="8.81506" y2="60.7233" gradientUnits="userSpaceOnUse">
<stop stop-color="#E0333C"/>
<stop offset="1" stop-color="#AB0F56"/>
</linearGradient>
<linearGradient id="paint8_linear_3010_6595" x1="51.3447" y1="27.0018" x2="18.9389" y2="27.0018" gradientUnits="userSpaceOnUse">
<stop stop-color="#E0C500"/>
<stop offset="0.4087" stop-color="#E0A600"/>
<stop offset="0.7754" stop-color="#E09100"/>
<stop offset="1" stop-color="#E08900"/>
</linearGradient>
<linearGradient id="paint9_linear_3010_6595" x1="51.3453" y1="27.0018" x2="18.9394" y2="27.0018" gradientUnits="userSpaceOnUse">
<stop stop-color="#FFE840"/>
<stop offset="0.4087" stop-color="#FFCE40"/>
<stop offset="0.7754" stop-color="#FFBC40"/>
<stop offset="1" stop-color="#FFB540"/>
</linearGradient>
<linearGradient id="paint10_linear_3010_6595" x1="35.2282" y1="11.8341" x2="12.6846" y2="34.31" gradientUnits="userSpaceOnUse">
<stop stop-color="#40B8FF"/>
<stop offset="0.00657445" stop-color="#40B9FF"/>
<stop offset="0.2601" stop-color="#40CEFF"/>
<stop offset="0.5122" stop-color="#40DDFF"/>
<stop offset="0.7604" stop-color="#40E7FF"/>
<stop offset="1" stop-color="#40EAFF"/>
</linearGradient>
<linearGradient id="paint11_linear_3010_6595" x1="15.8069" y1="0.371008" x2="29.458" y2="13.9811" gradientUnits="userSpaceOnUse">
<stop stop-color="#65B895"/>
<stop offset="0.0685" stop-color="#62BD95"/>
<stop offset="0.4762" stop-color="#50DB97"/>
<stop offset="0.8009" stop-color="#44ED98"/>
<stop offset="1" stop-color="#40F498"/>
</linearGradient>
</defs>
</svg>
